<svg xmlns="http://www.w3.org/2000/svg" viewBox="0 0 400 300">
  <defs>
    <linearGradient id="bg" x1="0%" y1="0%" x2="100%" y2="100%">
      <stop offset="0%" style="stop-color:#f8fafc"/>
      <stop offset="100%" style="stop-color:#e2e8f0"/>
    </linearGradient>
    <linearGradient id="accent" x1="0%" y1="0%" x2="100%" y2="0%">
      <stop offset="0%" style="stop-color:#2563eb"/>
      <stop offset="100%" style="stop-color:#1d4ed8"/>
    </linearGradient>
  </defs>
  <rect width="400" height="300" fill="url(#bg)"/>
  <rect x="60" y="50" width="280" height="200" rx="12" fill="white" stroke="#e5e7eb" stroke-width="2"/>
  <rect x="80" y="70" width="80" height="80" rx="8" fill="url(#accent)" opacity="0.9"/>
  <rect x="170" y="70" width="150" height="12" rx="4" fill="#94a3b8"/>
  <rect x="170" y="90" width="120" height="8" rx="4" fill="#cbd5e1"/>
  <rect x="170" y="105" width="100" height="8" rx="4" fill="#cbd5e1"/>
  <circle cx="100" cy="180" r="20" fill="#2563eb" opacity="0.7"/>
  <circle cx="140" cy="190" r="15" fill="#2563eb" opacity="0.5"/>
  <circle cx="120" cy="200" r="12" fill="#2563eb" opacity="0.3"/>
  <rect x="180" y="170" width="30" height="30" rx="4" fill="#f59e0b" transform="rotate(15 195 185)"/>
  <rect x="220" y="170" width="30" height="30" rx="4" fill="#10b981" transform="rotate(-10 235 185)"/>
  <rect x="260" y="175" width="25" height="25" rx="4" fill="#ef4444" transform="rotate(5 272.5 187.5)"/>
  <text x="200" y="265" text-anchor="middle" font-family="system-ui, -apple-system, sans-serif" font-size="18" font-weight="700" fill="#1e293b">PnP Finder</text>
</svg>
